<svg xmlns="http://www.w3.org/2000/svg" viewBox="0 0 800 400">
  <defs>
    <!-- Scanner gradient -->
    <linearGradient id="scannerGradient" x1="0%" y1="0%" x2="0%" y2="100%">
      <stop offset="0%" style="stop-color:rgba(0,255,136,0)"/>
      <stop offset="50%" style="stop-color:rgba(0,255,136,0.8)"/>
      <stop offset="100%" style="stop-color:rgba(0,255,136,0)"/>
    </linearGradient>
    
    <!-- Glow effect -->
    <filter id="scanGlow">
      <feGaussianBlur stdDeviation="3" result="blur"/>
      <feComposite in="SourceGraphic" in2="blur" operator="over"/>
    </filter>
  </defs>

  <!-- Dark background -->
  <rect width="800" height="400" fill="#0a192f"/>
  
  <!-- Large QR Code -->
  <g transform="translate(250, 50)">
    <!-- QR Code Corners -->
    <!-- Top Left -->
    <path d="M0,0 h60 v10 h-50 v50 h-10 z" fill="#00ff88"/>
    <rect x="20" y="20" width="30" height="30" fill="#00ff88"/>
    
    <!-- Top Right -->
    <path d="M240,0 h-60 v10 h50 v50 h10 z" fill="#00ff88"/>
    <rect x="190" y="20" width="30" height="30" fill="#00ff88"/>
    
    <!-- Bottom Left -->
    <path d="M0,240 h60 v-10 h-50 v-50 h-10 z" fill="#00ff88"/>
    <rect x="20" y="190" width="30" height="30" fill="#00ff88"/>
    
    <!-- QR Code Inner Pattern -->
    <g fill="#00ff88">
      <rect x="80" y="20" width="20" height="20"/>
      <rect x="120" y="40" width="20" height="20"/>
      <rect x="160" y="60" width="20" height="20"/>
      <rect x="40" y="80" width="20" height="20"/>
      <rect x="100" y="100" width="20" height="20"/>
      <rect x="140" y="120" width="20" height="20"/>
      <rect x="60" y="140" width="20" height="20"/>
      <rect x="180" y="160" width="20" height="20"/>
      <rect x="80" y="180" width="20" height="20"/>
      <rect x="120" y="200" width="20" height="20"/>
    </g>
  </g>

  <!-- Scanning line -->
  <rect x="250" y="50" width="240" height="240" fill="none" stroke="#00ff88" stroke-width="2"/>
  <rect x="250" y="50" width="240" height="10" fill="url(#scannerGradient)" filter="url(#scanGlow)">
    <animate 
      attributeName="y" 
      values="50;280;50" 
      dur="3s" 
      repeatCount="indefinite"/>
  </rect>

  <!-- Success checkmark (appears after scan) -->
  <g transform="translate(550, 150)">
    <circle cx="25" cy="25" r="25" fill="none" stroke="#00ff88" stroke-width="3">
      <animate
        attributeName="stroke-dasharray"
        values="0,157;157,0"
        dur="1s"
        repeatCount="indefinite"/>
    </circle>
    <path d="M15,25 L25,35 L40,15" stroke="#00ff88" stroke-width="3" fill="none">
      <animate
        attributeName="stroke-dasharray"
        values="0,40;40,0"
        dur="1s"
        repeatCount="indefinite"/>
    </path>
  </g>

  <!-- Text -->
  <text x="400" y="350" font-family="Arial" font-size="24" fill="#00ff88" text-anchor="middle" filter="url(#scanGlow)">
    Quantum QR Shield
    <animate
      attributeName="opacity"
      values="0.7;1;0.7"
      dur="2s"
      repeatCount="indefinite"/>
  </text>
</svg>
